<svg 
 xmlns="http://www.w3.org/2000/svg"
 xmlns:xlink="http://www.w3.org/1999/xlink"
 width="NaN%" height="NaN%">
<defs>
<filter id="Filter_0">
    <feFlood flood-color="rgb(107, 109, 121)" flood-opacity="1" result="floodOut" />
    <feComposite operator="atop" in="floodOut" in2="SourceGraphic" result="compOut" />
    <feBlend mode="normal" in="compOut" in2="SourceGraphic" />
</filter>

</defs>
<g filter="url(#Filter_0)">
<path fill-rule="evenodd"  fill="rgb(176, 177, 189)"
 d="M17.349,7.791 L10.275,12.732 C9.795,13.066 9.327,13.066 8.872,12.732 L1.760,7.791 C1.671,7.733 1.626,7.652 1.626,7.546 C1.626,7.440 1.671,7.358 1.760,7.301 L9.201,2.250 C9.429,2.095 9.657,2.095 9.884,2.250 L17.349,7.301 C17.439,7.358 17.483,7.440 17.483,7.546 C17.483,7.652 17.439,7.733 17.349,7.791 L17.349,7.791 ZM8.847,1.088 L0.858,6.457 C0.475,6.710 0.284,7.069 0.284,7.534 L0.284,16.205 C0.292,16.556 0.418,16.853 0.662,17.098 C0.907,17.343 1.204,17.465 1.554,17.465 L17.556,17.465 C17.906,17.465 18.203,17.343 18.447,17.098 C18.692,16.853 18.818,16.556 18.826,16.205 L18.826,7.534 C18.826,7.069 18.635,6.710 18.252,6.457 L10.226,1.088 C10.006,0.950 9.774,0.880 9.531,0.880 C9.287,0.880 9.059,0.950 8.847,1.088 L8.847,1.088 Z"/>
</g>
</svg>